<?xml version="1.0" encoding="utf-8"?>
<!-- Generator: Adobe Illustrator 27.6.1, SVG Export Plug-In . SVG Version: 6.00 Build 0)  -->
<svg version="1.1" id="Layer_1" xmlns="http://www.w3.org/2000/svg" xmlns:xlink="http://www.w3.org/1999/xlink" x="0px" y="0px"
	 viewBox="0 0 450 200" style="enable-background:new 0 0 450 200;" xml:space="preserve">
<style type="text/css">
	.st0{clip-path:url(#SVGID_00000003102773391951983140000006425231062592142782_);}
	.st1{fill:#FACA00;}
	.st2{fill:#231F20;}
</style>
<g>
	<defs>
		<rect id="SVGID_1_" y="0.5" width="450" height="198.9"/>
	</defs>
	<clipPath id="SVGID_00000163055123568810224830000005296186586513316029_">
		<use xlink:href="#SVGID_1_"  style="overflow:visible;"/>
	</clipPath>
	<g style="clip-path:url(#SVGID_00000163055123568810224830000005296186586513316029_);">
		<g>
			
				<rect x="-21.6" y="59.2" transform="matrix(0.9804 0.1969 -0.1969 0.9804 15.8009 -19.0709)" class="st1" width="250.9" height="21.5"/>
			<g>
				<g>
					<polygon class="st2" points="-8.8,58.3 -21.3,55.7 -5.6,37 6.9,39.5 					"/>
					<polygon class="st2" points="17.3,63.5 4.8,61 20.5,42.2 33,44.7 					"/>
				</g>
				<g>
					<polygon class="st2" points="43.5,68.8 30.9,66.2 46.6,47.5 59.2,50 					"/>
					<polygon class="st2" points="69.6,74 57,71.5 72.7,52.7 85.3,55.2 					"/>
				</g>
			</g>
			<g>
				<polygon class="st2" points="95.2,79.1 82.7,76.6 98.4,57.9 110.9,60.4 				"/>
				<polygon class="st2" points="121.3,84.4 108.8,81.9 124.5,63.1 137,65.6 				"/>
			</g>
			<g>
				<polygon class="st2" points="148.5,89.8 136,87.3 151.7,68.6 164.2,71.1 				"/>
				<polygon class="st2" points="174.6,95.1 162.1,92.6 177.8,73.8 190.3,76.3 				"/>
			</g>
			<polygon class="st2" points="203.9,101 191.4,98.5 207.1,79.7 219.6,82.2 			"/>
		</g>
		<g>
			
				<rect x="219.7" y="107.7" transform="matrix(0.9804 0.1969 -0.1969 0.9804 30.0781 -65.6615)" class="st1" width="250.9" height="21.5"/>
			<g>
				<g>
					<polygon class="st2" points="232.6,106.7 220.1,104.2 235.8,85.5 248.3,88 					"/>
					<polygon class="st2" points="258.7,112 246.2,109.5 261.9,90.7 274.4,93.2 					"/>
				</g>
				<g>
					<polygon class="st2" points="284.9,117.2 272.3,114.7 288,96 300.6,98.5 					"/>
					<polygon class="st2" points="311,122.5 298.4,120 314.1,101.2 326.7,103.7 					"/>
				</g>
			</g>
			<g>
				<polygon class="st2" points="336.6,127.6 324.1,125.1 339.8,106.4 352.3,108.9 				"/>
				<polygon class="st2" points="362.7,132.9 350.2,130.4 365.9,111.6 378.4,114.1 				"/>
			</g>
			<g>
				<polygon class="st2" points="389.9,138.3 377.4,135.8 393.1,117.1 405.6,119.6 				"/>
				<polygon class="st2" points="416,143.6 403.5,141.1 419.2,122.3 431.7,124.8 				"/>
			</g>
			<polygon class="st2" points="445.3,149.5 432.8,147 448.5,128.2 461,130.7 			"/>
		</g>
	</g>
	<g style="clip-path:url(#SVGID_00000163055123568810224830000005296186586513316029_);">
		<g>
			<rect x="-16.9" y="64.7" class="st1" width="239" height="20.5"/>
			<polygon class="st2" points="-4.8,85.1 -16.9,85.1 -5.8,64.7 6.4,64.7 			"/>
			<polygon class="st2" points="173.4,85.1 161.2,85.1 172.4,64.7 184.6,64.7 			"/>
			<polygon class="st2" points="201.9,85.1 189.7,85.1 200.9,64.7 213.1,64.7 			"/>
			<g>
				<path class="st2" d="M15.6,79.7c-0.6-0.3-1-0.7-1.3-1.3c-0.3-0.6-0.4-1.4-0.4-2.3v-5.9h2.3v6.2c0,0.7,0.1,1.1,0.4,1.4
					c0.3,0.3,0.6,0.4,1.1,0.4c0.5,0,0.9-0.1,1.1-0.4c0.2-0.3,0.4-0.8,0.4-1.4v-6.2h2.3V76c0,1-0.1,1.7-0.4,2.3
					c-0.3,0.6-0.7,1-1.2,1.3c-0.5,0.3-1.3,0.4-2.1,0.4C16.9,80.1,16.2,79.9,15.6,79.7z"/>
				<path class="st2" d="M28.3,70.1h2.2v9.8h-2.3l-3.3-6v6h-2.2v-9.8H25l3.3,6V70.1z"/>
				<path class="st2" d="M31.8,79.9v-9.6c1-0.2,1.9-0.3,2.8-0.3c1.6,0,2.9,0.4,3.7,1.2c0.8,0.8,1.2,2.1,1.2,3.8
					c0,1.2-0.2,2.1-0.6,2.9c-0.4,0.7-1,1.3-1.7,1.6c-0.8,0.4-1.7,0.5-2.9,0.5C33.4,80.1,32.6,80,31.8,79.9z M36.1,77.8
					c0.3-0.2,0.6-0.5,0.7-1C37,76.4,37,75.8,37,75c0-0.8-0.1-1.4-0.3-1.9c-0.2-0.5-0.4-0.8-0.7-1c-0.3-0.2-0.7-0.3-1.2-0.3
					c-0.1,0-0.2,0-0.4,0c-0.1,0-0.3,0-0.3,0.1v6.1c0.3,0,0.5,0,0.7,0C35.3,78.1,35.7,78,36.1,77.8z"/>
				<path class="st2" d="M42.8,78h4v2h-6.3v-9.8h6.2v2h-4v1.9h3.3v2h-3.3V78z"/>
				<path class="st2" d="M53,79.9l-2.1-3.5l-0.5,0c-0.1,0-0.2,0-0.3,0v3.5h-2.3v-9.7c1-0.2,1.9-0.3,2.8-0.3c1.4,0,2.4,0.3,3.1,0.8
					c0.7,0.5,1,1.4,1,2.4c0,0.7-0.1,1.2-0.4,1.7C54,75.4,53.6,75.8,53,76l2.4,3.9H53z M50.1,74.6c0.3,0,0.5,0,0.8,0
					c0.6,0,1-0.1,1.3-0.3c0.3-0.2,0.4-0.6,0.4-1.1c0-1-0.5-1.5-1.6-1.5c-0.3,0-0.6,0-0.9,0.1V74.6z"/>
				<path class="st2" d="M60,78.9c-0.8-0.8-1.2-2.1-1.2-3.8c0-1.7,0.4-3,1.2-3.8c0.8-0.8,2-1.3,3.5-1.3c0.6,0,1.3,0.1,1.8,0.2v1.9
					c-0.6-0.1-1.1-0.2-1.6-0.2c-0.6,0-1,0.1-1.4,0.3c-0.4,0.2-0.6,0.5-0.8,1c-0.2,0.5-0.3,1.1-0.3,1.8c0,0.8,0.1,1.4,0.3,1.9
					c0.2,0.5,0.5,0.8,0.8,1c0.4,0.2,0.8,0.3,1.4,0.3c0.5,0,1-0.1,1.6-0.3v1.9c-0.3,0.1-0.6,0.2-0.9,0.2c-0.4,0.1-0.7,0.1-1.1,0.1
					C61.9,80.1,60.7,79.7,60,78.9z"/>
				<path class="st2" d="M67.7,79.5c-0.6-0.4-1.1-0.9-1.4-1.7c-0.3-0.8-0.5-1.7-0.5-2.9c0-1.2,0.2-2.1,0.5-2.9
					c0.3-0.8,0.8-1.3,1.4-1.7c0.6-0.4,1.3-0.5,2.2-0.5c0.8,0,1.6,0.2,2.2,0.5c0.6,0.4,1.1,0.9,1.4,1.7c0.3,0.8,0.5,1.7,0.5,2.9
					c0,1.2-0.2,2.1-0.5,2.9c-0.3,0.8-0.8,1.3-1.4,1.7c-0.6,0.4-1.3,0.5-2.2,0.5C69,80.1,68.3,79.9,67.7,79.5z M70.9,77.8
					c0.3-0.2,0.5-0.5,0.6-1c0.1-0.5,0.2-1.1,0.2-1.8c0-0.8-0.1-1.4-0.2-1.9c-0.1-0.5-0.3-0.8-0.6-1c-0.3-0.2-0.6-0.3-1-0.3
					c-0.4,0-0.7,0.1-1,0.3c-0.3,0.2-0.5,0.5-0.6,1c-0.1,0.5-0.2,1.1-0.2,1.8c0,0.8,0.1,1.4,0.2,1.9c0.1,0.5,0.3,0.8,0.6,1
					c0.3,0.2,0.6,0.3,1,0.3C70.3,78.1,70.6,78,70.9,77.8z"/>
				<path class="st2" d="M80.7,70.1h2.2v9.8h-2.3l-3.3-6v6h-2.2v-9.8h2.3l3.3,6V70.1z"/>
				<path class="st2" d="M85.1,80c-0.4-0.1-0.8-0.2-1.2-0.3v-1.9c0.8,0.3,1.6,0.4,2.4,0.4c1,0,1.5-0.3,1.5-0.9c0-0.2,0-0.3-0.1-0.4
					c-0.1-0.1-0.2-0.2-0.4-0.3c-0.2-0.1-0.4-0.2-0.7-0.3l-0.7-0.2c-0.7-0.2-1.2-0.6-1.6-1.1c-0.4-0.5-0.6-1.1-0.6-1.8
					c0-0.6,0.1-1.2,0.4-1.6c0.3-0.5,0.7-0.8,1.3-1.1c0.6-0.2,1.3-0.4,2.1-0.4c0.4,0,0.8,0,1.1,0.1c0.4,0,0.7,0.1,1,0.2v1.9
					C89.3,72.1,89,72,88.7,72c-0.3,0-0.6-0.1-1-0.1c-0.6,0-1.1,0.1-1.4,0.3c-0.3,0.2-0.4,0.4-0.4,0.7c0,0.2,0,0.3,0.1,0.4
					c0.1,0.1,0.2,0.2,0.3,0.3c0.1,0.1,0.4,0.2,0.6,0.3l0.7,0.2c0.8,0.3,1.3,0.6,1.8,1.1c0.4,0.5,0.6,1.1,0.6,1.8
					c0,0.6-0.1,1.2-0.4,1.6c-0.3,0.5-0.7,0.8-1.3,1.1c-0.6,0.3-1.2,0.4-2,0.4C86,80.1,85.5,80,85.1,80z"/>
				<path class="st2" d="M92.6,79.9v-7.8h-2.7v-2h7.6v2h-2.7v7.8H92.6z"/>
				<path class="st2" d="M103.4,79.9l-2.1-3.5l-0.5,0c-0.1,0-0.2,0-0.3,0v3.5h-2.3v-9.7c1-0.2,1.9-0.3,2.8-0.3
					c1.4,0,2.4,0.3,3.1,0.8c0.7,0.5,1,1.4,1,2.4c0,0.7-0.1,1.2-0.4,1.7c-0.3,0.5-0.7,0.8-1.3,1.1l2.4,3.9H103.4z M100.5,74.6
					c0.3,0,0.5,0,0.8,0c0.6,0,1-0.1,1.3-0.3c0.3-0.2,0.4-0.6,0.4-1.1c0-1-0.5-1.5-1.6-1.5c-0.3,0-0.6,0-0.9,0.1V74.6z"/>
				<path class="st2" d="M107.9,79.7c-0.6-0.3-1-0.7-1.3-1.3c-0.3-0.6-0.4-1.4-0.4-2.3v-5.9h2.3v6.2c0,0.7,0.1,1.1,0.4,1.4
					c0.3,0.3,0.6,0.4,1.1,0.4c0.5,0,0.9-0.1,1.1-0.4c0.2-0.3,0.4-0.8,0.4-1.4v-6.2h2.3V76c0,1-0.1,1.7-0.4,2.3
					c-0.3,0.6-0.7,1-1.2,1.3c-0.5,0.3-1.2,0.4-2.1,0.4C109.2,80.1,108.5,79.9,107.9,79.7z"/>
				<path class="st2" d="M116,78.9c-0.8-0.8-1.2-2.1-1.2-3.8c0-1.7,0.4-3,1.2-3.8c0.8-0.8,2-1.3,3.5-1.3c0.6,0,1.3,0.1,1.8,0.2v1.9
					c-0.6-0.1-1.1-0.2-1.6-0.2c-0.6,0-1,0.1-1.4,0.3c-0.4,0.2-0.6,0.5-0.8,1c-0.2,0.5-0.3,1.1-0.3,1.8c0,0.8,0.1,1.4,0.3,1.9
					c0.2,0.5,0.5,0.8,0.8,1s0.8,0.3,1.4,0.3c0.5,0,1-0.1,1.6-0.3v1.9c-0.3,0.1-0.6,0.2-0.9,0.2c-0.4,0.1-0.7,0.1-1.1,0.1
					C117.9,80.1,116.8,79.7,116,78.9z"/>
				<path class="st2" d="M124.4,79.9v-7.8h-2.7v-2h7.6v2h-2.7v7.8H124.4z"/>
				<path class="st2" d="M130,79.9v-9.8h2.3v9.8H130z"/>
				<path class="st2" d="M135.4,79.5c-0.6-0.4-1.1-0.9-1.4-1.7c-0.3-0.8-0.5-1.7-0.5-2.9c0-1.2,0.2-2.1,0.5-2.9
					c0.3-0.8,0.8-1.3,1.4-1.7c0.6-0.4,1.3-0.5,2.2-0.5c0.8,0,1.6,0.2,2.2,0.5c0.6,0.4,1.1,0.9,1.4,1.7c0.3,0.8,0.5,1.7,0.5,2.9
					c0,1.2-0.2,2.1-0.5,2.9c-0.3,0.8-0.8,1.3-1.4,1.7c-0.6,0.4-1.3,0.5-2.2,0.5C136.7,80.1,136,79.9,135.4,79.5z M138.5,77.8
					c0.3-0.2,0.5-0.5,0.6-1c0.1-0.5,0.2-1.1,0.2-1.8c0-0.8-0.1-1.4-0.2-1.9c-0.1-0.5-0.3-0.8-0.6-1c-0.3-0.2-0.6-0.3-1-0.3
					c-0.4,0-0.7,0.1-1,0.3c-0.3,0.2-0.5,0.5-0.6,1c-0.1,0.5-0.2,1.1-0.2,1.8c0,0.8,0.1,1.4,0.2,1.9c0.1,0.5,0.3,0.8,0.6,1
					c0.3,0.2,0.6,0.3,1,0.3C137.9,78.1,138.2,78,138.5,77.8z"/>
				<path class="st2" d="M148.3,70.1h2.2v9.8h-2.3l-3.3-6v6h-2.2v-9.8h2.3l3.3,6V70.1z"/>
			</g>
		</g>
		<g>
			<rect x="217.2" y="64.7" class="st1" width="239" height="20.5"/>
			<polygon class="st2" points="229.4,85.1 217.2,85.1 228.4,64.7 240.5,64.7 			"/>
			<polygon class="st2" points="407.6,85.1 395.4,85.1 406.6,64.7 418.7,64.7 			"/>
			<polygon class="st2" points="436.1,85.1 423.9,85.1 435.1,64.7 447.2,64.7 			"/>
			<g>
				<path class="st2" d="M249.8,79.7c-0.6-0.3-1-0.7-1.3-1.3c-0.3-0.6-0.4-1.4-0.4-2.3v-5.9h2.3v6.2c0,0.7,0.1,1.1,0.4,1.4
					c0.3,0.3,0.6,0.4,1.1,0.4c0.5,0,0.9-0.1,1.1-0.4c0.2-0.3,0.4-0.8,0.4-1.4v-6.2h2.3V76c0,1-0.1,1.7-0.4,2.3
					c-0.3,0.6-0.7,1-1.2,1.3c-0.5,0.3-1.3,0.4-2.1,0.4C251,80.1,250.3,79.9,249.8,79.7z"/>
				<path class="st2" d="M262.5,70.1h2.2v9.8h-2.3l-3.3-6v6h-2.2v-9.8h2.3l3.3,6V70.1z"/>
				<path class="st2" d="M266,79.9v-9.6c1-0.2,1.9-0.3,2.8-0.3c1.6,0,2.9,0.4,3.7,1.2c0.8,0.8,1.2,2.1,1.2,3.8
					c0,1.2-0.2,2.1-0.6,2.9c-0.4,0.7-1,1.3-1.7,1.6c-0.8,0.4-1.7,0.5-2.9,0.5C267.6,80.1,266.8,80,266,79.9z M270.2,77.8
					c0.3-0.2,0.6-0.5,0.7-1c0.2-0.5,0.3-1.1,0.3-1.8c0-0.8-0.1-1.4-0.3-1.9c-0.2-0.5-0.4-0.8-0.7-1c-0.3-0.2-0.7-0.3-1.2-0.3
					c-0.1,0-0.2,0-0.4,0c-0.1,0-0.3,0-0.3,0.1v6.1c0.3,0,0.5,0,0.7,0C269.5,78.1,269.9,78,270.2,77.8z"/>
				<path class="st2" d="M276.9,78h4v2h-6.3v-9.8h6.2v2h-4v1.9h3.3v2h-3.3V78z"/>
				<path class="st2" d="M287.2,79.9l-2.1-3.5l-0.5,0c-0.1,0-0.2,0-0.3,0v3.5H282v-9.7c1-0.2,1.9-0.3,2.8-0.3c1.4,0,2.4,0.3,3.1,0.8
					c0.7,0.5,1,1.4,1,2.4c0,0.7-0.1,1.2-0.4,1.7c-0.3,0.5-0.7,0.8-1.3,1.1l2.4,3.9H287.2z M284.3,74.6c0.3,0,0.5,0,0.8,0
					c0.6,0,1-0.1,1.3-0.3c0.3-0.2,0.4-0.6,0.4-1.1c0-1-0.5-1.5-1.6-1.5c-0.3,0-0.6,0-0.9,0.1V74.6z"/>
				<path class="st2" d="M294.1,78.9c-0.8-0.8-1.2-2.1-1.2-3.8c0-1.7,0.4-3,1.2-3.8c0.8-0.8,2-1.3,3.5-1.3c0.6,0,1.3,0.1,1.8,0.2
					v1.9c-0.6-0.1-1.1-0.2-1.6-0.2c-0.6,0-1,0.1-1.4,0.3c-0.4,0.2-0.6,0.5-0.8,1c-0.2,0.5-0.3,1.1-0.3,1.8c0,0.8,0.1,1.4,0.3,1.9
					c0.2,0.5,0.5,0.8,0.8,1c0.4,0.2,0.8,0.3,1.4,0.3c0.5,0,1-0.1,1.6-0.3v1.9c-0.3,0.1-0.6,0.2-0.9,0.2c-0.4,0.1-0.7,0.1-1.1,0.1
					C296,80.1,294.9,79.7,294.1,78.9z"/>
				<path class="st2" d="M301.9,79.5c-0.6-0.4-1.1-0.9-1.4-1.7c-0.3-0.8-0.5-1.7-0.5-2.9c0-1.2,0.2-2.1,0.5-2.9
					c0.3-0.8,0.8-1.3,1.4-1.7c0.6-0.4,1.3-0.5,2.2-0.5c0.8,0,1.6,0.2,2.2,0.5c0.6,0.4,1.1,0.9,1.4,1.7c0.3,0.8,0.5,1.7,0.5,2.9
					c0,1.2-0.2,2.1-0.5,2.9c-0.3,0.8-0.8,1.3-1.4,1.7c-0.6,0.4-1.3,0.5-2.2,0.5C303.2,80.1,302.5,79.9,301.9,79.5z M305,77.8
					c0.3-0.2,0.5-0.5,0.6-1c0.1-0.5,0.2-1.1,0.2-1.8c0-0.8-0.1-1.4-0.2-1.9c-0.1-0.5-0.3-0.8-0.6-1c-0.3-0.2-0.6-0.3-1-0.3
					c-0.4,0-0.7,0.1-1,0.3c-0.3,0.2-0.5,0.5-0.6,1c-0.1,0.5-0.2,1.1-0.2,1.8c0,0.8,0.1,1.4,0.2,1.9c0.1,0.5,0.3,0.8,0.6,1
					c0.3,0.2,0.6,0.3,1,0.3C304.4,78.1,304.8,78,305,77.8z"/>
				<path class="st2" d="M314.8,70.1h2.2v9.8h-2.3l-3.3-6v6h-2.2v-9.8h2.3l3.3,6V70.1z"/>
				<path class="st2" d="M319.3,80c-0.4-0.1-0.8-0.2-1.2-0.3v-1.9c0.8,0.3,1.6,0.4,2.4,0.4c1,0,1.5-0.3,1.5-0.9c0-0.2,0-0.3-0.1-0.4
					c-0.1-0.1-0.2-0.2-0.4-0.3c-0.2-0.1-0.4-0.2-0.7-0.3l-0.7-0.2c-0.7-0.2-1.2-0.6-1.6-1.1c-0.4-0.5-0.6-1.1-0.6-1.8
					c0-0.6,0.1-1.2,0.4-1.6c0.3-0.5,0.7-0.8,1.3-1.1c0.6-0.2,1.3-0.4,2.1-0.4c0.4,0,0.8,0,1.1,0.1c0.4,0,0.7,0.1,1,0.2v1.9
					c-0.3-0.1-0.6-0.1-0.9-0.2c-0.3,0-0.6-0.1-1-0.1c-0.6,0-1.1,0.1-1.4,0.3c-0.3,0.2-0.4,0.4-0.4,0.7c0,0.2,0,0.3,0.1,0.4
					c0.1,0.1,0.2,0.2,0.3,0.3c0.1,0.1,0.4,0.2,0.6,0.3l0.7,0.2c0.8,0.3,1.3,0.6,1.8,1.1c0.4,0.5,0.6,1.1,0.6,1.8
					c0,0.6-0.1,1.2-0.4,1.6c-0.3,0.5-0.7,0.8-1.3,1.1c-0.6,0.3-1.2,0.4-2,0.4C320.1,80.1,319.7,80,319.3,80z"/>
				<path class="st2" d="M326.8,79.9v-7.8h-2.7v-2h7.6v2h-2.7v7.8H326.8z"/>
				<path class="st2" d="M337.6,79.9l-2.1-3.5l-0.5,0c-0.1,0-0.2,0-0.3,0v3.5h-2.3v-9.7c1-0.2,1.9-0.3,2.8-0.3
					c1.4,0,2.4,0.3,3.1,0.8c0.7,0.5,1,1.4,1,2.4c0,0.7-0.1,1.2-0.4,1.7c-0.3,0.5-0.7,0.8-1.3,1.1l2.4,3.9H337.6z M334.7,74.6
					c0.3,0,0.5,0,0.8,0c0.6,0,1-0.1,1.3-0.3c0.3-0.2,0.4-0.6,0.4-1.1c0-1-0.5-1.5-1.6-1.5c-0.3,0-0.6,0-0.9,0.1V74.6z"/>
				<path class="st2" d="M342.1,79.7c-0.6-0.3-1-0.7-1.3-1.3c-0.3-0.6-0.4-1.4-0.4-2.3v-5.9h2.3v6.2c0,0.7,0.1,1.1,0.4,1.4
					c0.3,0.3,0.6,0.4,1.1,0.4c0.5,0,0.9-0.1,1.1-0.4c0.2-0.3,0.4-0.8,0.4-1.4v-6.2h2.3V76c0,1-0.1,1.7-0.4,2.3
					c-0.3,0.6-0.7,1-1.2,1.3c-0.5,0.3-1.2,0.4-2.1,0.4C343.4,80.1,342.7,79.9,342.1,79.7z"/>
				<path class="st2" d="M350.2,78.9c-0.8-0.8-1.2-2.1-1.2-3.8c0-1.7,0.4-3,1.2-3.8c0.8-0.8,2-1.3,3.5-1.3c0.6,0,1.3,0.1,1.8,0.2
					v1.9c-0.6-0.1-1.1-0.2-1.6-0.2c-0.6,0-1,0.1-1.4,0.3c-0.4,0.2-0.6,0.5-0.8,1c-0.2,0.5-0.3,1.1-0.3,1.8c0,0.8,0.1,1.4,0.3,1.9
					c0.2,0.5,0.5,0.8,0.8,1c0.4,0.2,0.8,0.3,1.4,0.3c0.5,0,1-0.1,1.6-0.3v1.9c-0.3,0.1-0.6,0.2-0.9,0.2c-0.4,0.1-0.7,0.1-1.1,0.1
					C352.1,80.1,350.9,79.7,350.2,78.9z"/>
				<path class="st2" d="M358.6,79.9v-7.8h-2.7v-2h7.6v2h-2.7v7.8H358.6z"/>
				<path class="st2" d="M364.2,79.9v-9.8h2.3v9.8H364.2z"/>
				<path class="st2" d="M369.5,79.5c-0.6-0.4-1.1-0.9-1.4-1.7c-0.3-0.8-0.5-1.7-0.5-2.9c0-1.2,0.2-2.1,0.5-2.9
					c0.3-0.8,0.8-1.3,1.4-1.7c0.6-0.4,1.3-0.5,2.2-0.5c0.8,0,1.6,0.2,2.2,0.5c0.6,0.4,1.1,0.9,1.4,1.7c0.3,0.8,0.5,1.7,0.5,2.9
					c0,1.2-0.2,2.1-0.5,2.9c-0.3,0.8-0.8,1.3-1.4,1.7c-0.6,0.4-1.3,0.5-2.2,0.5C370.9,80.1,370.1,79.9,369.5,79.5z M372.7,77.8
					c0.3-0.2,0.5-0.5,0.6-1c0.1-0.5,0.2-1.1,0.2-1.8c0-0.8-0.1-1.4-0.2-1.9c-0.1-0.5-0.3-0.8-0.6-1c-0.3-0.2-0.6-0.3-1-0.3
					c-0.4,0-0.7,0.1-1,0.3c-0.3,0.2-0.5,0.5-0.6,1c-0.1,0.5-0.2,1.1-0.2,1.8c0,0.8,0.1,1.4,0.2,1.9c0.1,0.5,0.3,0.8,0.6,1
					c0.3,0.2,0.6,0.3,1,0.3C372.1,78.1,372.4,78,372.7,77.8z"/>
				<path class="st2" d="M382.5,70.1h2.2v9.8h-2.3l-3.3-6v6h-2.2v-9.8h2.3l3.3,6V70.1z"/>
			</g>
		</g>
	</g>
	<g style="clip-path:url(#SVGID_00000163055123568810224830000005296186586513316029_);">
		<g>
			
				<rect x="-12.9" y="146.7" transform="matrix(0.9886 -0.1503 0.1503 0.9886 -22.387 18.7025)" class="st1" width="250.9" height="21.5"/>
			<g>
				<g>
					<polygon class="st2" points="2.7,185 -9.9,186.9 -1.6,163.9 11.1,162 					"/>
					<polygon class="st2" points="29.1,181 16.4,182.9 24.8,159.9 37.4,158 					"/>
				</g>
				<g>
					<polygon class="st2" points="55.4,177 42.8,178.9 51.1,155.9 63.8,154 					"/>
					<polygon class="st2" points="81.7,173 69.1,174.9 77.4,151.9 90.1,150 					"/>
				</g>
			</g>
			<g>
				<polygon class="st2" points="107.6,169 95,170.9 103.3,147.9 115.9,146 				"/>
				<polygon class="st2" points="133.9,165 121.3,166.9 129.6,143.9 142.3,142 				"/>
			</g>
			<g>
				<polygon class="st2" points="161.3,160.9 148.7,162.8 157,139.8 169.7,137.8 				"/>
				<polygon class="st2" points="187.6,156.8 175,158.8 183.4,135.8 196,133.8 				"/>
			</g>
			<polygon class="st2" points="217.2,152.4 204.6,154.3 212.9,131.3 225.6,129.4 			"/>
		</g>
		<g>
			
				<rect x="230.5" y="109.7" transform="matrix(0.9886 -0.1503 0.1503 0.9886 -14.055 54.8782)" class="st1" width="250.9" height="21.5"/>
			<g>
				<g>
					<polygon class="st2" points="246.2,148 233.5,149.9 241.9,126.9 254.5,125 					"/>
					<polygon class="st2" points="272.5,144 259.8,145.9 268.2,122.9 280.8,120.9 					"/>
				</g>
				<g>
					<polygon class="st2" points="298.8,139.9 286.2,141.9 294.5,118.9 307.2,116.9 					"/>
					<polygon class="st2" points="325.2,135.9 312.5,137.9 320.9,114.9 333.5,112.9 					"/>
				</g>
			</g>
			<g>
				<polygon class="st2" points="351,132 338.4,133.9 346.7,110.9 359.4,109 				"/>
				<polygon class="st2" points="377.3,128 364.7,129.9 373,106.9 385.7,105 				"/>
			</g>
			<g>
				<polygon class="st2" points="404.7,123.8 392.1,125.8 400.5,102.8 413.1,100.8 				"/>
				<polygon class="st2" points="431.1,119.8 418.4,121.8 426.8,98.8 439.4,96.8 				"/>
			</g>
			<polygon class="st2" points="460.6,115.3 448,117.3 456.3,94.3 469,92.3 			"/>
		</g>
	</g>
	<g style="clip-path:url(#SVGID_00000163055123568810224830000005296186586513316029_);">
		<g>
			
				<rect x="-8.7" y="92.8" transform="matrix(0.9662 -0.2578 0.2578 0.9662 -22.823 32.0468)" class="st1" width="239" height="20.5"/>
			<polygon class="st2" points="9.7,140.6 -2,143.8 3.5,121.1 15.2,118 			"/>
			<polygon class="st2" points="181.9,94.7 170.2,97.8 175.7,75.2 187.4,72 			"/>
			<polygon class="st2" points="209.4,87.3 197.7,90.5 203.2,67.8 214.9,64.7 			"/>
			<g>
				<path class="st2" d="M28,130.1c-0.6-0.1-1.1-0.4-1.6-0.9c-0.4-0.5-0.8-1.2-1-2.1l-1.5-5.7l2.2-0.6l1.6,6
					c0.2,0.6,0.4,1.1,0.7,1.3c0.3,0.2,0.7,0.3,1.2,0.1c0.5-0.1,0.8-0.4,1-0.7c0.2-0.3,0.2-0.8,0-1.5l-1.6-6l2.2-0.6l1.5,5.7
					c0.2,0.9,0.3,1.7,0.2,2.4c-0.1,0.6-0.4,1.2-0.9,1.6c-0.5,0.4-1.1,0.7-1.9,0.9C29.3,130.2,28.6,130.2,28,130.1z"/>
				<path class="st2" d="M37.8,117.6l2.1-0.6l2.5,9.5l-2.2,0.6l-4.7-4.9l1.5,5.8l-2.1,0.6l-2.5-9.5l2.2-0.6l4.7,4.9L37.8,117.6z"/>
				<path class="st2" d="M43.7,126.2l-2.5-9.3c0.9-0.4,1.7-0.8,2.6-1c1.6-0.4,2.9-0.3,3.9,0.2c1,0.6,1.7,1.7,2.1,3.4
					c0.3,1.1,0.4,2.1,0.2,2.9c-0.2,0.8-0.6,1.5-1.2,2c-0.7,0.5-1.5,1-2.7,1.3C45.4,125.9,44.6,126,43.7,126.2z M47.3,123.1
					c0.3-0.3,0.4-0.6,0.5-1.1c0-0.5,0-1.1-0.2-1.9c-0.2-0.7-0.4-1.3-0.7-1.7c-0.3-0.4-0.6-0.7-1-0.8c-0.4-0.1-0.8-0.1-1.2,0
					c-0.1,0-0.2,0.1-0.4,0.1c-0.1,0-0.2,0.1-0.3,0.1l1.6,5.9c0.3-0.1,0.5-0.1,0.7-0.2C46.7,123.5,47.1,123.3,47.3,123.1z"/>
				<path class="st2" d="M53.8,121.4l3.9-1l0.5,1.9l-6.1,1.6l-2.5-9.5l6-1.6l0.5,1.9l-3.8,1l0.5,1.8l3.2-0.8l0.5,1.9l-3.2,0.8
					L53.8,121.4z"/>
				<path class="st2" d="M64.2,120.7l-2.9-2.8l-0.4,0.1c-0.1,0-0.2,0-0.3,0.1l0.9,3.4l-2.2,0.6l-2.5-9.3c0.9-0.4,1.8-0.8,2.7-1
					c1.3-0.4,2.4-0.4,3.2,0c0.8,0.3,1.3,1,1.6,2.1c0.2,0.6,0.2,1.2,0,1.8c-0.2,0.5-0.5,1-0.9,1.4l3.4,3.1L64.2,120.7z M60,116.3
					c0.3,0,0.5-0.1,0.8-0.2c0.5-0.1,0.9-0.4,1.1-0.6c0.2-0.3,0.2-0.7,0.1-1.2c-0.3-0.9-0.9-1.3-1.9-1c-0.3,0.1-0.6,0.2-0.8,0.3
					L60,116.3z"/>
				<path class="st2" d="M70.7,117.9c-1-0.6-1.7-1.7-2.1-3.4c-0.4-1.6-0.4-3,0.2-4c0.6-1,1.6-1.7,3.1-2.1c0.6-0.2,1.2-0.3,1.8-0.3
					l0.5,1.9c-0.6,0-1.1,0.1-1.6,0.2c-0.6,0.1-1,0.4-1.3,0.6c-0.3,0.3-0.5,0.7-0.6,1.2c-0.1,0.5,0,1.1,0.2,1.8
					c0.2,0.8,0.4,1.3,0.7,1.7c0.3,0.4,0.6,0.6,1,0.7c0.4,0.1,0.9,0.1,1.4-0.1c0.4-0.1,0.9-0.4,1.5-0.7l0.5,1.9
					c-0.2,0.2-0.5,0.3-0.8,0.5c-0.3,0.1-0.7,0.3-1,0.4C72.8,118.6,71.6,118.5,70.7,117.9z"/>
				<path class="st2" d="M78.3,116.5c-0.7-0.2-1.3-0.6-1.8-1.2c-0.5-0.6-0.9-1.5-1.2-2.6c-0.3-1.1-0.4-2.1-0.2-2.9
					c0.1-0.8,0.5-1.5,1-2c0.5-0.5,1.2-0.9,2-1.1c0.8-0.2,1.6-0.2,2.2-0.1c0.7,0.2,1.3,0.6,1.8,1.2c0.5,0.6,0.9,1.5,1.2,2.6
					c0.3,1.1,0.4,2.1,0.2,2.9c-0.1,0.8-0.5,1.5-1,2c-0.5,0.5-1.2,0.9-2,1.1C79.8,116.7,79,116.7,78.3,116.5z M80.9,114.1
					c0.2-0.3,0.3-0.6,0.3-1.1c0-0.5-0.1-1.1-0.3-1.8c-0.2-0.8-0.4-1.3-0.7-1.8c-0.3-0.4-0.5-0.7-0.8-0.8c-0.3-0.1-0.6-0.1-1,0
					c-0.4,0.1-0.7,0.3-0.9,0.5c-0.2,0.3-0.3,0.6-0.3,1.1c0,0.5,0.1,1.1,0.3,1.8c0.2,0.8,0.4,1.3,0.7,1.8c0.3,0.4,0.5,0.7,0.8,0.8
					c0.3,0.1,0.6,0.1,1,0C80.5,114.5,80.7,114.4,80.9,114.1z"/>
				<path class="st2" d="M88.4,104.1l2.1-0.6L93,113l-2.2,0.6l-4.7-4.9l1.5,5.8l-2.1,0.6l-2.5-9.5l2.2-0.6l4.7,4.9L88.4,104.1z"/>
				<path class="st2" d="M95.2,112.5c-0.4,0-0.9,0.1-1.2,0l-0.5-1.9c0.9,0,1.7,0,2.4-0.2c0.9-0.3,1.3-0.7,1.2-1.3
					c0-0.2-0.1-0.3-0.2-0.4c-0.1-0.1-0.2-0.2-0.4-0.2c-0.2-0.1-0.4-0.1-0.8-0.1l-0.8,0c-0.7,0-1.3-0.2-1.8-0.6
					c-0.5-0.4-0.9-0.9-1-1.6c-0.2-0.6-0.2-1.2,0-1.7c0.2-0.5,0.5-1,1-1.4c0.5-0.4,1.1-0.7,2-0.9c0.4-0.1,0.7-0.2,1.1-0.2
					c0.4,0,0.7-0.1,1-0.1l0.5,1.9c-0.3,0-0.6,0-0.9,0c-0.3,0-0.6,0.1-1,0.2c-0.6,0.2-1,0.4-1.3,0.6c-0.2,0.2-0.3,0.5-0.2,0.8
					c0,0.1,0.1,0.3,0.2,0.4c0.1,0.1,0.2,0.2,0.4,0.2c0.2,0,0.4,0.1,0.7,0.1l0.8,0c0.8,0,1.5,0.2,2,0.6s0.9,0.9,1.1,1.6
					c0.2,0.6,0.2,1.2,0,1.7c-0.2,0.5-0.5,1-1,1.4c-0.5,0.4-1.1,0.7-1.8,0.9C96.1,112.3,95.7,112.4,95.2,112.5z"/>
				<path class="st2" d="M102.5,110.5l-2-7.5l-2.6,0.7l-0.5-2l7.4-2l0.5,2l-2.6,0.7l2,7.5L102.5,110.5z"/>
				<path class="st2" d="M113,107.7l-2.9-2.8l-0.4,0.1c-0.1,0-0.2,0-0.3,0.1l0.9,3.4L108,109l-2.5-9.3c0.9-0.4,1.8-0.8,2.7-1
					c1.3-0.4,2.4-0.4,3.2,0c0.8,0.3,1.3,1,1.6,2.1c0.2,0.6,0.2,1.2,0,1.8c-0.2,0.5-0.5,1-0.9,1.4l3.4,3.1L113,107.7z M108.8,103.3
					c0.3,0,0.5-0.1,0.8-0.2c0.5-0.1,0.9-0.4,1.1-0.6c0.2-0.3,0.2-0.7,0.1-1.2c-0.3-0.9-0.9-1.3-1.9-1c-0.3,0.1-0.6,0.2-0.8,0.3
					L108.8,103.3z"/>
				<path class="st2" d="M117.2,106.3c-0.6-0.1-1.1-0.4-1.6-0.9c-0.4-0.5-0.8-1.2-1-2.1l-1.5-5.7l2.2-0.6l1.6,6
					c0.2,0.6,0.4,1.1,0.7,1.3c0.3,0.2,0.7,0.3,1.2,0.1c0.5-0.1,0.8-0.4,1-0.7c0.2-0.3,0.2-0.8,0-1.5l-1.6-6l2.2-0.6l1.5,5.7
					c0.2,0.9,0.3,1.7,0.2,2.4s-0.4,1.2-0.9,1.6c-0.5,0.4-1.1,0.7-1.9,0.9C118.6,106.4,117.8,106.4,117.2,106.3z"/>
				<path class="st2" d="M124.8,103.4c-1-0.6-1.7-1.7-2.1-3.4c-0.4-1.6-0.4-3,0.2-4c0.6-1,1.6-1.7,3.1-2.1c0.6-0.2,1.2-0.3,1.8-0.3
					l0.5,1.9c-0.6,0-1.1,0.1-1.6,0.2c-0.6,0.1-1,0.4-1.3,0.6c-0.3,0.3-0.5,0.7-0.6,1.2c-0.1,0.5,0,1.1,0.2,1.8
					c0.2,0.8,0.4,1.3,0.7,1.7c0.3,0.4,0.6,0.6,1,0.7c0.4,0.1,0.9,0.1,1.4-0.1c0.4-0.1,0.9-0.4,1.5-0.7l0.5,1.9
					c-0.2,0.2-0.5,0.3-0.8,0.5c-0.3,0.1-0.7,0.3-1,0.4C127,104.1,125.8,104,124.8,103.4z"/>
				<path class="st2" d="M133.2,102.3l-2-7.5l-2.6,0.7l-0.5-2l7.4-2l0.5,2l-2.6,0.7l2,7.5L133.2,102.3z"/>
				<path class="st2" d="M138.7,100.9l-2.5-9.5l2.2-0.6l2.5,9.5L138.7,100.9z"/>
				<path class="st2" d="M143.7,99.1c-0.7-0.2-1.3-0.6-1.8-1.2c-0.5-0.6-0.9-1.5-1.2-2.6c-0.3-1.1-0.4-2.1-0.2-2.9
					c0.1-0.8,0.5-1.5,1-2c0.5-0.5,1.2-0.9,2-1.1c0.8-0.2,1.6-0.2,2.2-0.1c0.7,0.2,1.3,0.6,1.8,1.2c0.5,0.6,0.9,1.5,1.2,2.6
					c0.3,1.1,0.4,2.1,0.2,2.9c-0.1,0.8-0.5,1.5-1,2c-0.5,0.5-1.2,0.9-2,1.1C145.1,99.3,144.4,99.3,143.7,99.1z M146.3,96.7
					c0.2-0.3,0.3-0.6,0.3-1.1c0-0.5-0.1-1.1-0.3-1.8c-0.2-0.8-0.4-1.3-0.7-1.8c-0.3-0.4-0.5-0.7-0.8-0.8c-0.3-0.1-0.6-0.1-1,0
					c-0.4,0.1-0.7,0.3-0.9,0.5c-0.2,0.3-0.3,0.6-0.3,1.1c0,0.5,0.1,1.1,0.3,1.8c0.2,0.8,0.4,1.3,0.7,1.8c0.3,0.4,0.5,0.7,0.8,0.8
					c0.3,0.1,0.6,0.1,1,0C145.8,97.1,146.1,96.9,146.3,96.7z"/>
				<path class="st2" d="M153.8,86.6l2.1-0.6l2.5,9.5l-2.2,0.6l-4.7-4.9L153,97l-2.1,0.6l-2.5-9.5l2.2-0.6l4.7,4.9L153.8,86.6z"/>
			</g>
		</g>
		<g>
			
				<rect x="217.6" y="32.5" transform="matrix(0.9662 -0.2578 0.2578 0.9662 0.3842 88.3305)" class="st1" width="239" height="20.5"/>
			<polygon class="st2" points="236,80.3 224.2,83.4 229.7,60.7 241.5,57.6 			"/>
			<polygon class="st2" points="408.2,34.3 396.4,37.5 401.9,14.8 413.7,11.7 			"/>
			<polygon class="st2" points="435.7,27 423.9,30.1 429.4,7.5 441.2,4.3 			"/>
			<g>
				<path class="st2" d="M254.3,69.7c-0.6-0.1-1.1-0.4-1.6-0.9c-0.4-0.5-0.8-1.2-1-2.1l-1.5-5.7l2.2-0.6l1.6,6
					c0.2,0.6,0.4,1.1,0.7,1.3c0.3,0.2,0.7,0.3,1.2,0.1c0.5-0.1,0.8-0.4,1-0.7c0.2-0.3,0.2-0.8,0-1.5l-1.6-6l2.2-0.6l1.5,5.7
					c0.2,0.9,0.3,1.7,0.2,2.4c-0.1,0.6-0.4,1.2-0.9,1.6c-0.5,0.4-1.1,0.7-1.9,0.9C255.6,69.8,254.9,69.8,254.3,69.7z"/>
				<path class="st2" d="M264.1,57.2l2.1-0.6l2.5,9.5l-2.2,0.6l-4.7-4.9l1.5,5.8l-2.1,0.6l-2.5-9.5l2.2-0.6l4.7,4.9L264.1,57.2z"/>
				<path class="st2" d="M270,65.8l-2.5-9.3c0.9-0.4,1.7-0.8,2.6-1c1.6-0.4,2.9-0.3,3.9,0.2c1,0.6,1.7,1.7,2.1,3.4
					c0.3,1.1,0.4,2.1,0.2,2.9c-0.2,0.8-0.6,1.5-1.2,2c-0.7,0.5-1.5,1-2.7,1.3C271.6,65.5,270.8,65.7,270,65.8z M273.6,62.7
					c0.3-0.3,0.4-0.6,0.5-1.1c0-0.5,0-1.1-0.2-1.9c-0.2-0.7-0.4-1.3-0.7-1.7c-0.3-0.4-0.6-0.7-1-0.8c-0.4-0.1-0.8-0.1-1.2,0
					c-0.1,0-0.2,0.1-0.4,0.1c-0.1,0-0.2,0.1-0.3,0.1l1.6,5.9c0.3-0.1,0.5-0.1,0.7-0.2C272.9,63.2,273.3,63,273.6,62.7z"/>
				<path class="st2" d="M280.1,61.1l3.9-1l0.5,1.9l-6.1,1.6l-2.5-9.5l6-1.6l0.5,1.9l-3.8,1l0.5,1.8l3.2-0.8l0.5,1.9l-3.2,0.8
					L280.1,61.1z"/>
				<path class="st2" d="M290.5,60.3l-2.9-2.8l-0.4,0.1c-0.1,0-0.2,0-0.3,0.1l0.9,3.4l-2.2,0.6l-2.5-9.3c0.9-0.4,1.8-0.8,2.7-1
					c1.3-0.4,2.4-0.4,3.2,0c0.8,0.3,1.3,1,1.6,2.1c0.2,0.6,0.2,1.2,0,1.8c-0.2,0.5-0.5,1-0.9,1.4l3.4,3.1L290.5,60.3z M286.3,56
					c0.3,0,0.5-0.1,0.8-0.2c0.5-0.1,0.9-0.4,1.1-0.6c0.2-0.3,0.2-0.7,0.1-1.2c-0.3-0.9-0.9-1.3-1.9-1c-0.3,0.1-0.6,0.2-0.8,0.3
					L286.3,56z"/>
				<path class="st2" d="M296.9,57.5c-1-0.6-1.7-1.7-2.1-3.4c-0.4-1.6-0.4-3,0.2-4c0.6-1,1.6-1.7,3.1-2.1c0.6-0.2,1.2-0.3,1.8-0.3
					l0.5,1.9c-0.6,0-1.1,0.1-1.6,0.2c-0.6,0.1-1,0.4-1.3,0.6c-0.3,0.3-0.5,0.7-0.6,1.2c-0.1,0.5,0,1.1,0.2,1.8
					c0.2,0.8,0.4,1.3,0.7,1.7c0.3,0.4,0.6,0.6,1,0.7c0.4,0.1,0.9,0.1,1.4-0.1c0.4-0.1,0.9-0.4,1.5-0.7l0.5,1.9
					c-0.2,0.2-0.5,0.3-0.8,0.5c-0.3,0.1-0.7,0.3-1,0.4C299.1,58.2,297.9,58.1,296.9,57.5z"/>
				<path class="st2" d="M304.6,56.2c-0.7-0.2-1.3-0.6-1.8-1.2c-0.5-0.6-0.9-1.5-1.2-2.6c-0.3-1.1-0.4-2.1-0.2-2.9
					c0.1-0.8,0.5-1.5,1-2c0.5-0.5,1.2-0.9,2-1.1c0.8-0.2,1.6-0.2,2.2-0.1c0.7,0.2,1.3,0.6,1.8,1.2c0.5,0.6,0.9,1.5,1.2,2.6
					c0.3,1.1,0.4,2.1,0.2,2.9c-0.1,0.8-0.5,1.5-1,2c-0.5,0.5-1.2,0.9-2,1.1C306,56.3,305.3,56.4,304.6,56.2z M307.2,53.7
					c0.2-0.3,0.3-0.6,0.3-1.1c0-0.5-0.1-1.1-0.3-1.8c-0.2-0.8-0.4-1.3-0.7-1.8c-0.3-0.4-0.5-0.7-0.8-0.8c-0.3-0.1-0.6-0.1-1,0
					c-0.4,0.1-0.7,0.3-0.9,0.5c-0.2,0.3-0.3,0.6-0.3,1.1s0.1,1.1,0.3,1.8c0.2,0.8,0.4,1.3,0.7,1.8c0.3,0.4,0.5,0.7,0.8,0.8
					c0.3,0.1,0.6,0.1,1,0C306.7,54.2,307,54,307.2,53.7z"/>
				<path class="st2" d="M314.7,43.7l2.1-0.6l2.5,9.5l-2.2,0.6l-4.7-4.9l1.5,5.8l-2.1,0.6l-2.5-9.5l2.2-0.6l4.7,4.9L314.7,43.7z"/>
				<path class="st2" d="M321.5,52.1c-0.4,0-0.9,0.1-1.2,0l-0.5-1.9c0.9,0,1.7,0,2.4-0.2c0.9-0.3,1.3-0.7,1.2-1.3
					c0-0.2-0.1-0.3-0.2-0.4c-0.1-0.1-0.2-0.2-0.4-0.2c-0.2-0.1-0.4-0.1-0.8-0.1l-0.8,0c-0.7,0-1.3-0.2-1.8-0.6
					c-0.5-0.4-0.9-0.9-1-1.6c-0.2-0.6-0.2-1.2,0-1.7c0.2-0.5,0.5-1,1-1.4c0.5-0.4,1.1-0.7,2-0.9c0.4-0.1,0.7-0.2,1.1-0.2
					c0.4,0,0.7-0.1,1-0.1l0.5,1.9c-0.3,0-0.6,0-0.9,0c-0.3,0-0.6,0.1-1,0.2c-0.6,0.2-1,0.4-1.3,0.6c-0.2,0.2-0.3,0.5-0.2,0.8
					c0,0.1,0.1,0.3,0.2,0.4c0.1,0.1,0.2,0.2,0.4,0.2c0.2,0,0.4,0.1,0.7,0.1l0.8,0c0.8,0,1.5,0.2,2,0.6c0.5,0.3,0.9,0.9,1.1,1.6
					c0.2,0.6,0.2,1.2,0,1.7c-0.2,0.5-0.5,1-1,1.4c-0.5,0.4-1.1,0.7-1.8,0.9C322.4,52,321.9,52.1,321.5,52.1z"/>
				<path class="st2" d="M328.7,50.1l-2-7.5l-2.6,0.7l-0.5-2l7.4-2l0.5,2L329,42l2,7.5L328.7,50.1z"/>
				<path class="st2" d="M339.2,47.3l-2.9-2.8l-0.4,0.1c-0.1,0-0.2,0-0.3,0.1l0.9,3.4l-2.2,0.6l-2.5-9.3c0.9-0.4,1.8-0.8,2.7-1
					c1.3-0.4,2.4-0.4,3.2,0s1.3,1,1.6,2.1c0.2,0.7,0.2,1.2,0,1.8c-0.2,0.5-0.5,1-0.9,1.4l3.4,3.1L339.2,47.3z M335,43
					c0.3,0,0.5-0.1,0.8-0.2c0.5-0.1,0.9-0.4,1.1-0.6c0.2-0.3,0.2-0.7,0.1-1.2c-0.3-0.9-0.9-1.3-1.9-1c-0.3,0.1-0.6,0.2-0.8,0.3
					L335,43z"/>
				<path class="st2" d="M343.5,45.9c-0.6-0.1-1.1-0.4-1.6-0.9c-0.4-0.5-0.8-1.2-1-2.1l-1.5-5.7l2.2-0.6l1.6,6
					c0.2,0.6,0.4,1.1,0.7,1.3c0.3,0.2,0.7,0.3,1.2,0.1c0.5-0.1,0.8-0.4,1-0.7s0.2-0.8,0-1.5l-1.6-6l2.2-0.6l1.5,5.7
					c0.2,0.9,0.3,1.7,0.2,2.4c-0.1,0.6-0.4,1.2-0.9,1.6c-0.5,0.4-1.1,0.7-1.9,0.9C344.8,46,344.1,46,343.5,45.9z"/>
				<path class="st2" d="M351.1,43.1c-1-0.6-1.7-1.7-2.1-3.4c-0.4-1.6-0.4-3,0.2-4c0.6-1,1.6-1.7,3.1-2.1c0.6-0.2,1.2-0.3,1.8-0.3
					l0.5,1.9c-0.6,0-1.1,0.1-1.6,0.2c-0.6,0.1-1,0.4-1.3,0.6c-0.3,0.3-0.5,0.7-0.6,1.2c-0.1,0.5,0,1.1,0.2,1.8
					c0.2,0.8,0.4,1.3,0.7,1.7c0.3,0.4,0.6,0.6,1,0.7c0.4,0.1,0.9,0.1,1.4-0.1c0.4-0.1,0.9-0.4,1.5-0.7l0.5,1.9
					c-0.2,0.2-0.5,0.3-0.8,0.5c-0.3,0.1-0.7,0.3-1,0.4C353.2,43.7,352,43.7,351.1,43.1z"/>
				<path class="st2" d="M359.4,41.9l-2-7.5l-2.6,0.7l-0.5-2l7.4-2l0.5,2l-2.6,0.7l2,7.5L359.4,41.9z"/>
				<path class="st2" d="M364.9,40.5l-2.5-9.5l2.2-0.6l2.5,9.5L364.9,40.5z"/>
				<path class="st2" d="M369.9,38.7c-0.7-0.2-1.3-0.6-1.8-1.2c-0.5-0.6-0.9-1.5-1.2-2.6c-0.3-1.1-0.4-2.1-0.2-2.9
					c0.1-0.8,0.5-1.5,1-2c0.5-0.5,1.2-0.9,2-1.1c0.8-0.2,1.6-0.2,2.2-0.1c0.7,0.2,1.3,0.6,1.8,1.2c0.5,0.6,0.9,1.5,1.2,2.6
					c0.3,1.1,0.4,2.1,0.2,2.9c-0.1,0.8-0.5,1.5-1,2c-0.5,0.5-1.2,0.9-2,1.1C371.4,38.9,370.6,38.9,369.9,38.7z M372.6,36.3
					c0.2-0.3,0.3-0.6,0.3-1.1c0-0.5-0.1-1.1-0.3-1.8c-0.2-0.8-0.4-1.3-0.7-1.8c-0.3-0.4-0.5-0.7-0.8-0.8c-0.3-0.1-0.6-0.1-1,0
					c-0.4,0.1-0.7,0.3-0.9,0.5c-0.2,0.3-0.3,0.6-0.3,1.1c0,0.5,0.1,1.1,0.3,1.8c0.2,0.8,0.4,1.3,0.7,1.8c0.3,0.4,0.5,0.7,0.8,0.8
					c0.3,0.1,0.6,0.1,1,0C372.1,36.7,372.4,36.6,372.6,36.3z"/>
				<path class="st2" d="M380,26.3l2.1-0.6l2.5,9.5l-2.2,0.6l-4.7-4.9l1.5,5.8l-2.1,0.6l-2.5-9.5l2.2-0.6l4.7,4.9L380,26.3z"/>
			</g>
		</g>
	</g>
</g>
</svg>
